<!-- Generated by IcoMoon.io -->
<svg version="1.1" xmlns="http://www.w3.org/2000/svg" width="36" height="32" viewBox="0 0 36 32">
    <path d="M12.215 3.049c-0.217 0.378-0.802 1.425-1.312 2.332s-1.491 2.653-2.19 3.87c-0.699 1.218-1.473 2.558-1.699 2.973-0.236 0.415-0.944 1.369-1.576 2.114-0.623 0.736-1.227 1.463-1.331 1.595l-0.189 0.255 0.349-0.208c0.368-0.217 2.813-1.926 3.36-2.35 0.17-0.132 0.963-1.227 1.765-2.426 1.312-1.982 1.803-2.709 2.643-3.908 0.16-0.217 0.312-0.396 0.349-0.406 0.028 0 0.868 0.576 1.86 1.284l1.803 1.284v0.727c0 0.396 0.047 0.868 0.094 1.057 0.057 0.189 0.538 1.114 1.086 2.067 0.547 0.963 0.991 1.784 0.991 1.841s-0.604 0.595-1.34 1.189c-1.303 1.038-1.869 1.558-1.869 1.709 0 0.076 0.84-0.217 1.161-0.396 0.236-0.142 3.153-1.227 3.285-1.227 0.066 0 0.076 0.066 0.038 0.16-0.17 0.425-0.34 1.095-0.293 1.142 0.028 0.028 0.151 0 0.274-0.057 0.113-0.057 0.444-0.17 0.727-0.255s0.576-0.17 0.642-0.198c0.066-0.019 0.255 0.113 0.425 0.283 0.604 0.623 2.284 2.039 2.313 1.954 0.019-0.047-0.142-0.481-0.34-0.972-0.208-0.481-0.472-1.152-0.595-1.491l-0.208-0.623 1.671-1.954c0.925-1.076 1.727-1.954 1.794-1.954 0.057 0 0.604 0.34 1.218 0.755s1.161 0.755 1.208 0.755c0.066 0 0.076-0.217 0.028-0.632-0.047-0.519-0.038-0.614 0.076-0.576 0.066 0.028 0.887 0.566 1.822 1.199 0.925 0.623 1.709 1.123 1.727 1.095 0.028-0.028-0.038-0.17-0.142-0.312-0.359-0.481-1.756-2.426-2.228-3.087-0.547-0.774-1.34-1.699-1.992-2.332-0.359-0.34-0.5-0.425-0.623-0.359-0.085 0.047-0.623 0.585-1.189 1.189-2.067 2.237-2.379 2.52-2.624 2.454-0.132-0.028-0.349-0.009-0.491 0.038l-0.255 0.104 0.623 0.585c0.717 0.67 0.802 0.944 0.396 1.34-0.293 0.302-0.519 0.302-0.519 0.019 0-0.604-0.793-0.727-2.058-0.321-0.434 0.142-0.963 0.255-1.18 0.255-0.415-0.009-0.415 0 0.094-0.359 0.142-0.104 0.104-0.113-0.274-0.085-0.538 0.047-0.604-0.076-0.094-0.17 0.632-0.104 0.632-0.208 0-0.283l-0.595-0.076 0.5-0.123c0.67-0.151 0.689-0.198 0.142-0.274-0.708-0.094-0.774-0.151-0.359-0.283l0.378-0.113-0.453-0.076c-0.519-0.085-0.651-0.208-0.302-0.293 0.283-0.076 0.236-0.189-0.123-0.274-0.217-0.047-0.274-0.113-0.274-0.312 0-0.142-0.491-1.425-1.086-2.851s-1.142-2.747-1.208-2.926c-0.066-0.179-0.302-0.519-0.51-0.755-0.425-0.491-2.369-2.492-2.709-2.804l-0.227-0.208-0.387 0.68z"></path>
    <path d="M13.093 9.978c-0.142 0.132-0.047 0.406 0.264 0.783 0.227 0.274 0.33 0.491 0.33 0.699 0 0.245 0.123 0.415 0.661 0.953 0.368 0.359 0.661 0.614 0.661 0.566 0-0.057-0.132-0.312-0.283-0.566-0.151-0.264-0.283-0.557-0.283-0.67 0-0.104-0.151-0.34-0.34-0.519-0.189-0.17-0.472-0.547-0.623-0.821-0.302-0.529-0.293-0.519-0.387-0.425z"></path>
    <path d="M11.12 11.214c-0.302 0.321-0.868 1.199-1.69 2.596-0.179 0.312-0.434 0.614-0.576 0.689-0.34 0.179-0.349 0.349-0.019 0.217 0.425-0.151 0.944-0.623 1.303-1.161 0.378-0.576 1.416-2.596 1.359-2.662-0.019-0.019-0.189 0.123-0.378 0.321z"></path>
    <path d="M21.239 13.168c0 0.047 0.519 0.33 0.614 0.33 0.142 0 0.019-0.17-0.189-0.264-0.255-0.123-0.425-0.142-0.425-0.066z"></path>
    <path d="M26.733 14.046c0.396 0.557 1.435 1.52 1.539 1.425 0.066-0.066-1.416-1.595-1.548-1.595-0.085 0-0.085 0.047 0.009 0.17z"></path>
    <path d="M26.393 21.182c-0.802 0.302-1.265 1.038-1.35 2.171-0.104 1.369 0.444 2.369 1.463 2.662 0.632 0.189 1.293 0.132 1.803-0.151 1.369-0.774 1.397-3.7 0.038-4.503-0.51-0.293-1.407-0.378-1.954-0.179zM27.762 22.428c0.198 0.208 0.227 0.349 0.255 1.010 0.028 0.906-0.142 1.378-0.566 1.52-0.651 0.227-1.114-0.321-1.114-1.331 0-0.982 0.274-1.444 0.85-1.444 0.245 0 0.406 0.066 0.576 0.245z"></path>
    <path d="M1.605 23.599v2.454h1.038l0.019-1.822 0.028-1.812 0.368 1.51c0.576 2.36 0.472 2.124 0.953 2.124 0.378 0 0.425-0.028 0.491-0.264 0.028-0.142 0.245-0.953 0.463-1.812l0.396-1.558 0.009 1.812 0.009 1.822h1.038v-4.909h-1.661l-0.321 1.34c-0.17 0.746-0.349 1.407-0.378 1.482-0.038 0.066-0.236-0.538-0.434-1.35l-0.359-1.473h-1.661v2.454z"></path>
    <path d="M7.363 23.599v2.454h3.587v-1.133h-2.265v-0.944h2.077v-1.133h-2.077v-0.566h2.171v-1.133h-3.493v2.454z"></path>
    <path d="M11.327 21.711v0.566h1.322v3.776h1.322v-3.776h1.322v-1.133h-3.965v0.566z"></path>
    <path d="M16.868 21.211c-0.019 0.038-0.198 0.604-0.396 1.255-0.189 0.651-0.51 1.699-0.708 2.332-0.189 0.632-0.33 1.18-0.302 1.208s0.34 0.047 0.68 0.047h0.642l0.104-0.425 0.104-0.434 1.454 0.057 0.085 0.406 0.076 0.406 1.303-0.028c1.954-0.057 2.011-0.113 2.067-2.228l0.038-1.435h1.019v3.681h1.322v-4.909h-3.681v1.775c0 1.878-0.028 2.001-0.444 2.001-0.198 0-0.217 0.038-0.217 0.491 0 0.264-0.019 0.463-0.047 0.434-0.028-0.019-0.359-1.086-0.736-2.35l-0.689-2.303-0.812-0.028c-0.453-0.009-0.831 0.009-0.859 0.047zM17.935 23.089c0.255 0.887 0.255 0.887-0.245 0.887-0.368 0-0.425-0.028-0.378-0.17 0.028-0.085 0.123-0.453 0.208-0.802s0.17-0.623 0.198-0.604c0.019 0.028 0.113 0.33 0.217 0.689z"></path>
    <path d="M30.206 23.599v2.454h1.322v-1.982h1.322v1.982h1.322v-4.909h-1.322v1.699h-1.322v-1.699h-1.322v2.454z"></path>
    <path d="M1.794 27.677c0 0.227-0.028 0.5-0.057 0.614l-0.057 0.217h3.408c2.964 0 3.408-0.019 3.408-0.142 0-0.076-0.028-0.132-0.066-0.132-0.047 0.009-1.51 0.009-3.257 0l-3.191-0.009v-0.472c0-0.264-0.038-0.472-0.094-0.472-0.047 0-0.094 0.179-0.094 0.396z"></path>
    <path d="M33.982 27.752v0.472l-3.087 0.009c-1.709 0.009-3.153 0.009-3.209 0-0.066-0.009-0.123 0.047-0.123 0.132 0 0.123 0.396 0.142 3.351 0.142h3.351v-0.614c0-0.481-0.028-0.614-0.142-0.614-0.104 0-0.142 0.113-0.142 0.472z"></path>
    <path d="M10.383 28.366c0 0.831 0.019 0.897 0.189 0.897 0.16 0 0.179-0.076 0.208-0.783l0.028-0.774 0.547-0.028c0.812-0.047 0.642-0.208-0.217-0.208h-0.755v0.897z"></path>
    <path d="M14.631 28.366c0 0.831 0.009 0.897 0.189 0.897 0.151 0 0.189-0.066 0.189-0.321 0-0.311 0.009-0.321 0.491-0.378 0.689-0.094 0.831-0.189 0.831-0.576 0-0.425-0.189-0.519-1.029-0.519h-0.67v0.897zM15.83 27.866c0.217 0.179 0.019 0.359-0.406 0.359-0.378 0-0.415-0.019-0.415-0.227 0-0.123 0.057-0.255 0.123-0.283 0.142-0.057 0.547 0.019 0.699 0.151z"></path>
    <path d="M19.389 28.101c0.434 0.68 0.463 0.878 0.094 0.878-0.142 0-0.227 0.057-0.227 0.142 0 0.227 0.5 0.179 0.727-0.066 0.17-0.198 0.878-1.435 0.878-1.539 0-0.028-0.094-0.047-0.208-0.047-0.17 0-0.255 0.104-0.387 0.425-0.104 0.236-0.217 0.425-0.264 0.425s-0.179-0.189-0.293-0.425c-0.17-0.349-0.255-0.425-0.472-0.425h-0.264l0.415 0.632z"></path>
    <path d="M23.599 28.366c0 0.887 0 0.897 0.236 0.897 0.227 0 0.227-0.019 0.255-0.783l0.028-0.774 0.897-0.057v0.802c0 0.802 0 0.812 0.236 0.812s0.236 0 0.236-0.897v-0.897h-1.888v0.897z"></path>
</svg>