<!-- Generated by IcoMoon.io -->
<svg version="1.1" xmlns="http://www.w3.org/2000/svg" width="49" height="32" viewBox="0 0 49 32" fill="#fff">
    <path d="M15.095 0.332c-0.075 0.154-0.146 0.288-0.158 0.3-0.028 0.024-0.075 0.111-0.391 0.711-0.119 0.229-0.241 0.45-0.269 0.494-0.032 0.043-0.055 0.107-0.055 0.142 0 0.040-0.016 0.075-0.032 0.083-0.036 0.012-0.174 0.257-0.541 0.96-0.126 0.237-0.253 0.478-0.28 0.533-0.032 0.055-0.055 0.122-0.055 0.146 0 0.028-0.016 0.051-0.036 0.051-0.016 0-0.071 0.083-0.115 0.186-0.047 0.107-0.201 0.403-0.34 0.664s-0.36 0.679-0.486 0.928c-0.126 0.249-0.241 0.458-0.257 0.466-0.020 0.008-0.032 0.036-0.032 0.059 0 0.028-0.059 0.162-0.134 0.304-0.071 0.142-0.182 0.356-0.245 0.474s-0.122 0.225-0.134 0.237c-0.012 0.012-0.087 0.154-0.17 0.316s-0.166 0.324-0.186 0.356c-0.020 0.032-0.107 0.201-0.194 0.375-0.3 0.604-0.537 1.067-0.561 1.086-0.016 0.012-0.040 0.063-0.055 0.119s-0.040 0.107-0.055 0.119c-0.032 0.024-0.107 0.166-0.474 0.889-0.166 0.324-0.308 0.601-0.32 0.612-0.020 0.020-0.162 0.284-0.363 0.672-0.051 0.099-0.099 0.186-0.111 0.198s-0.067 0.107-0.122 0.217c-0.055 0.107-0.182 0.348-0.28 0.533s-0.213 0.399-0.253 0.474c-0.043 0.075-0.087 0.146-0.099 0.158-0.032 0.028-0.087 0.174-0.083 0.205 0.004 0.020-0.008 0.032-0.028 0.032s-0.067 0.079-0.111 0.178c-0.040 0.099-0.083 0.178-0.095 0.178-0.016 0-0.047 0.051-0.075 0.119-0.028 0.063-0.063 0.119-0.083 0.119s-0.036 0.024-0.036 0.047c0 0.028-0.067 0.178-0.15 0.336-0.079 0.154-0.233 0.458-0.344 0.672-0.107 0.213-0.209 0.391-0.225 0.399-0.020 0.008-0.032 0.040-0.032 0.071s-0.016 0.055-0.040 0.055c-0.020 0-0.040 0.024-0.040 0.047 0 0.063-0.201 0.466-0.265 0.537-0.028 0.028-0.051 0.079-0.051 0.111s-0.012 0.055-0.032 0.055c-0.016 0-0.099 0.142-0.186 0.316-0.277 0.561-0.296 0.593-0.344 0.593-0.024 0-0.032 0.012-0.020 0.028 0.016 0.012-0.028 0.119-0.091 0.229-0.067 0.115-0.119 0.237-0.119 0.273s-0.016 0.063-0.036 0.063c-0.020 0-0.051 0.036-0.063 0.083-0.016 0.043-0.079 0.158-0.142 0.253s-0.146 0.241-0.178 0.324c-0.036 0.083-0.075 0.158-0.091 0.17-0.012 0.012-0.087 0.142-0.162 0.288s-0.158 0.288-0.186 0.312c-0.028 0.024-0.051 0.059-0.051 0.083 0 0.036-0.34 0.573-0.395 0.62-0.012 0.012-0.067 0.083-0.119 0.158-0.055 0.075-0.126 0.166-0.158 0.198-0.032 0.036-0.095 0.115-0.138 0.174-0.043 0.063-0.095 0.13-0.119 0.158-0.051 0.059-0.442 0.553-0.593 0.751-0.332 0.439-0.521 0.683-0.593 0.77-0.043 0.051-0.142 0.17-0.217 0.261-0.253 0.3-0.324 0.395-0.427 0.553-0.059 0.087-0.146 0.198-0.194 0.245-0.051 0.047-0.091 0.107-0.091 0.13 0 0.020-0.016 0.040-0.040 0.040-0.020 0-0.063 0.051-0.095 0.111s-0.119 0.182-0.198 0.269c-0.075 0.083-0.162 0.198-0.19 0.253-0.028 0.051-0.134 0.186-0.233 0.296-0.431 0.466-0.51 0.565-0.51 0.612 0 0.024-0.016 0.040-0.036 0.040s-0.075 0.079-0.122 0.178c-0.047 0.099-0.103 0.178-0.122 0.178s-0.036 0.016-0.036 0.040c0 0.020 0.024 0.040 0.051 0.036 0.087-0.004 1.292-0.814 1.292-0.873 0-0.016 0.016-0.032 0.036-0.032 0.040 0 1.047-0.739 1.426-1.047 0.119-0.099 0.474-0.375 0.79-0.612 0.316-0.241 0.612-0.47 0.656-0.514 0.047-0.043 0.103-0.079 0.122-0.079s0.087-0.047 0.154-0.111c0.154-0.134 0.253-0.201 0.344-0.229 0.036-0.016 0.067-0.036 0.067-0.051 0-0.032 0.49-0.399 0.529-0.399 0.012 0 0.055-0.028 0.091-0.059 0.288-0.237 0.668-0.533 0.695-0.533 0.051 0 0.604-0.569 0.679-0.703 0.043-0.067 0.091-0.126 0.107-0.126s0.032-0.024 0.032-0.051c0-0.028 0.028-0.087 0.059-0.126 0.119-0.154 0.265-0.391 0.3-0.482 0.020-0.051 0.051-0.091 0.075-0.091 0.020 0 0.040-0.016 0.040-0.036 0-0.059 0.612-1.063 0.964-1.584 0.17-0.249 0.332-0.502 0.363-0.561 0.028-0.055 0.075-0.126 0.103-0.158 0.028-0.028 0.083-0.115 0.122-0.19 0.079-0.158 0.198-0.352 0.356-0.573 0.201-0.284 0.581-0.885 0.581-0.924 0-0.020 0.024-0.043 0.051-0.055 0.028-0.008 0.087-0.091 0.126-0.182 0.043-0.087 0.091-0.162 0.107-0.162 0.012 0 0.043-0.047 0.067-0.111 0.043-0.115 0.059-0.138 0.292-0.474 0.079-0.122 0.146-0.237 0.146-0.261 0-0.028 0.036-0.075 0.079-0.115 0.043-0.036 0.079-0.095 0.079-0.126s0.012-0.059 0.032-0.059c0.016 0 0.063-0.071 0.103-0.158 0.043-0.087 0.091-0.158 0.111-0.158 0.016 0 0.032-0.020 0.032-0.040 0-0.024 0.067-0.146 0.154-0.269 0.265-0.391 0.439-0.672 0.439-0.711 0-0.020 0.024-0.059 0.051-0.083 0.032-0.024 0.095-0.122 0.146-0.221s0.107-0.178 0.126-0.178c0.016 0 0.032-0.020 0.032-0.047 0-0.024 0.043-0.103 0.099-0.174s0.099-0.138 0.099-0.154c0-0.012 0.020-0.043 0.040-0.071 0.024-0.028 0.134-0.19 0.245-0.363s0.292-0.458 0.407-0.632c0.111-0.174 0.344-0.533 0.514-0.798 0.17-0.269 0.336-0.518 0.371-0.553 0.036-0.040 0.087-0.119 0.111-0.182 0.028-0.059 0.067-0.107 0.091-0.107 0.020 0 0.040-0.028 0.040-0.059s0.043-0.099 0.099-0.154c0.055-0.055 0.099-0.115 0.099-0.134s0.043-0.075 0.099-0.126l0.099-0.091 0.107 0.095c0.063 0.051 0.126 0.119 0.142 0.142 0.016 0.028 0.047 0.051 0.067 0.051s0.079 0.040 0.13 0.087c0.198 0.19 0.336 0.308 0.356 0.308s0.221 0.162 0.348 0.284c0.043 0.040 0.087 0.071 0.099 0.071 0.024 0 0.328 0.229 0.371 0.277 0.012 0.012 0.083 0.067 0.158 0.119 0.075 0.055 0.174 0.126 0.213 0.166 0.043 0.040 0.091 0.071 0.107 0.071s0.107 0.071 0.201 0.158c0.091 0.087 0.241 0.205 0.328 0.265 0.087 0.063 0.166 0.119 0.178 0.13s0.075 0.055 0.138 0.095c0.067 0.043 0.134 0.099 0.15 0.13 0.016 0.028 0.055 0.051 0.087 0.051 0.028 0 0.059 0.016 0.067 0.036 0.008 0.016 0.209 0.182 0.446 0.36 0.241 0.182 0.442 0.34 0.454 0.352s0.17 0.138 0.356 0.277c0.186 0.142 0.363 0.284 0.399 0.316 0.036 0.036 0.107 0.091 0.154 0.122 0.051 0.032 0.146 0.107 0.213 0.162 0.067 0.059 0.328 0.261 0.577 0.45l0.454 0.344v1.426c0 1.383 0.004 1.442 0.091 1.746 0.051 0.174 0.111 0.332 0.13 0.356 0.020 0.020 0.036 0.063 0.036 0.099 0 0.055 0.423 0.944 0.47 0.988 0.016 0.012 0.075 0.119 0.134 0.237 0.217 0.423 0.442 0.849 0.462 0.869 0.012 0.012 0.083 0.142 0.158 0.296 0.075 0.15 0.217 0.419 0.316 0.593s0.237 0.439 0.312 0.593c0.075 0.15 0.146 0.284 0.162 0.296s0.051 0.071 0.083 0.13c0.198 0.387 0.529 1.019 0.612 1.154 0.107 0.174 0.174 0.32 0.174 0.379 0 0.020 0.016 0.036 0.036 0.036s0.059 0.059 0.083 0.134c0.024 0.075 0.055 0.142 0.071 0.15s0.095 0.146 0.178 0.308c0.083 0.162 0.186 0.367 0.233 0.45l0.083 0.154-0.395 0.379c-0.379 0.367-0.759 0.707-1.011 0.913-0.067 0.055-0.194 0.162-0.284 0.241-0.087 0.079-0.201 0.174-0.253 0.217-0.051 0.040-0.292 0.249-0.533 0.462-0.241 0.217-0.518 0.458-0.612 0.545-0.095 0.083-0.186 0.154-0.205 0.162-0.032 0.012-0.399 0.324-0.597 0.514-0.063 0.059-0.198 0.178-0.3 0.257-0.221 0.178-0.439 0.371-0.664 0.585-0.849 0.814-1.106 1.079-1.075 1.11 0.012 0.008 0.3-0.079 0.648-0.198 0.865-0.292 0.885-0.3 1.063-0.379 0.087-0.036 0.308-0.126 0.494-0.198 0.656-0.249 0.751-0.292 0.751-0.324 0-0.016 0.024-0.032 0.051-0.032 0.043 0 0.49-0.17 0.759-0.292s0.676-0.288 1.284-0.537c0.273-0.111 0.549-0.225 0.612-0.257 0.067-0.028 0.316-0.126 0.553-0.217 0.241-0.091 0.514-0.198 0.612-0.237 0.099-0.043 0.249-0.095 0.336-0.122 0.087-0.024 0.221-0.067 0.296-0.099 0.296-0.107 0.561-0.182 0.581-0.158 0.016 0.012 0.004 0.099-0.020 0.194-0.122 0.482-0.213 0.806-0.241 0.877-0.036 0.083-0.067 0.186-0.201 0.652-0.047 0.162-0.111 0.363-0.142 0.446-0.071 0.186-0.071 0.186 0.024 0.186 0.178 0 1.13-0.257 1.442-0.391 0.178-0.075 0.407-0.158 0.612-0.221 0.119-0.040 0.277-0.095 0.348-0.122 0.071-0.032 0.162-0.055 0.201-0.055s0.15-0.028 0.241-0.059c0.158-0.055 0.174-0.055 0.312 0.028 0.079 0.047 0.15 0.107 0.158 0.13 0.020 0.051 0.774 0.786 1.15 1.126 0.332 0.296 0.474 0.442 0.474 0.482 0 0.020 0.020 0.032 0.043 0.032 0.028 0 0.099 0.051 0.162 0.119 0.059 0.063 0.119 0.119 0.126 0.119s0.213 0.194 0.458 0.435c0.241 0.237 0.442 0.435 0.446 0.435 0.008 0 0.529 0.49 1.146 1.075 0.308 0.292 0.367 0.332 0.375 0.261 0.008-0.047-0.004-0.119-0.024-0.166-0.024-0.047-0.079-0.217-0.13-0.379-0.047-0.162-0.099-0.312-0.119-0.332-0.020-0.024-0.036-0.075-0.036-0.119 0-0.047-0.024-0.126-0.051-0.182s-0.087-0.217-0.126-0.367c-0.043-0.146-0.091-0.265-0.103-0.265-0.016 0-0.039-0.047-0.051-0.111-0.043-0.162-0.277-0.739-0.308-0.751-0.020-0.008-0.032-0.047-0.032-0.087s-0.016-0.083-0.036-0.095c-0.016-0.012-0.055-0.103-0.083-0.201s-0.067-0.178-0.083-0.178c-0.020 0-0.036-0.036-0.036-0.079s-0.051-0.194-0.119-0.336c-0.063-0.142-0.119-0.292-0.119-0.336s-0.016-0.079-0.032-0.079c-0.020 0-0.059-0.075-0.083-0.166-0.028-0.095-0.067-0.19-0.083-0.209-0.016-0.024-0.043-0.103-0.059-0.178s-0.043-0.158-0.059-0.178c-0.016-0.024-0.051-0.119-0.079-0.217s-0.075-0.233-0.103-0.3c-0.028-0.067-0.063-0.221-0.079-0.34-0.020-0.182-0.012-0.229 0.051-0.292 0.039-0.040 0.126-0.146 0.19-0.233 0.122-0.166 0.209-0.277 0.277-0.352 0.162-0.174 0.731-0.901 0.731-0.932 0-0.024 0.016-0.040 0.032-0.040 0.020 0 0.087-0.075 0.154-0.17 0.067-0.091 0.19-0.237 0.269-0.324s0.174-0.205 0.209-0.265c0.036-0.063 0.079-0.111 0.095-0.111s0.032-0.016 0.032-0.036c0-0.036 0.079-0.134 0.348-0.439 0.067-0.083 0.126-0.17 0.126-0.194s0.012-0.043 0.032-0.043c0.016 0 0.134-0.134 0.265-0.304 0.13-0.166 0.257-0.32 0.277-0.344 0.059-0.059 0.407-0.51 0.573-0.735 0.205-0.28 0.454-0.597 0.569-0.727 0.055-0.063 0.103-0.126 0.103-0.142s0.043-0.079 0.099-0.142c0.162-0.19 0.19-0.225 0.407-0.502 0.119-0.146 0.229-0.265 0.249-0.265s0.036-0.016 0.036-0.040c0-0.020 0.036-0.079 0.075-0.126 0.043-0.051 0.115-0.134 0.162-0.19 0.205-0.241 0.442-0.47 0.514-0.494 0.115-0.036 0.727 0.316 1.134 0.652 0.028 0.024 0.055 0.040 0.067 0.040 0.036 0 0.715 0.521 0.727 0.557 0.008 0.020 0.036 0.036 0.063 0.036s0.103 0.047 0.17 0.107c0.071 0.063 0.162 0.138 0.209 0.17s0.126 0.091 0.17 0.13c0.047 0.040 0.134 0.103 0.198 0.138 0.059 0.036 0.107 0.079 0.107 0.095s0.020 0.032 0.047 0.032c0.024 0 0.083 0.032 0.126 0.075 0.221 0.201 1.395 0.936 1.434 0.897 0.012-0.008-0.083-0.838-0.142-1.268-0.051-0.363-0.115-0.889-0.134-1.098-0.020-0.194 0.028-0.241 0.138-0.134 0.028 0.028 0.158 0.122 0.288 0.205 0.13 0.087 0.241 0.17 0.249 0.186 0.008 0.020 0.032 0.032 0.055 0.032s0.107 0.051 0.19 0.119c0.083 0.063 0.17 0.119 0.194 0.119s0.043 0.012 0.043 0.032c0 0.016 0.107 0.099 0.237 0.186s0.237 0.17 0.237 0.186c0 0.020 0.020 0.032 0.039 0.032 0.024 0 0.063 0.020 0.091 0.040 0.142 0.119 0.518 0.395 0.537 0.395 0.012 0 0.079 0.051 0.142 0.115 0.067 0.059 0.158 0.13 0.205 0.154 0.067 0.036 0.565 0.419 0.98 0.751 0.024 0.016 0.13 0.091 0.237 0.166 0.111 0.075 0.205 0.15 0.209 0.166 0.008 0.020 0.039 0.032 0.067 0.032s0.059 0.028 0.075 0.059c0.012 0.032 0.039 0.059 0.063 0.059 0.043 0 0.095 0.036 0.241 0.17 0.039 0.036 0.087 0.067 0.103 0.067 0.012 0 0.051 0.028 0.087 0.059 0.067 0.063 0.948 0.691 0.972 0.691 0.008 0 0.13 0.079 0.277 0.178 0.142 0.095 0.296 0.186 0.34 0.198 0.039 0.016 0.075 0.040 0.075 0.055s0.043 0.051 0.099 0.075c0.119 0.055 0.107 0.016-0.107-0.356-0.083-0.142-0.15-0.28-0.15-0.3 0-0.024-0.016-0.047-0.032-0.055-0.020-0.008-0.091-0.103-0.166-0.209-0.075-0.111-0.158-0.221-0.186-0.249s-0.051-0.071-0.051-0.095c0-0.020-0.079-0.138-0.178-0.265-0.099-0.122-0.178-0.245-0.178-0.269s-0.016-0.051-0.032-0.059c-0.043-0.016-0.403-0.569-0.403-0.616 0-0.024-0.012-0.047-0.028-0.055-0.020-0.008-0.099-0.111-0.182-0.229-0.237-0.344-0.834-1.221-0.877-1.296-0.020-0.036-0.067-0.095-0.103-0.134-0.036-0.043-0.099-0.138-0.138-0.221-0.043-0.079-0.115-0.19-0.162-0.245-0.051-0.051-0.091-0.111-0.091-0.126 0-0.012-0.024-0.051-0.047-0.079-0.095-0.103-0.387-0.541-0.387-0.585 0-0.020-0.020-0.040-0.039-0.040-0.024 0-0.055-0.032-0.067-0.071-0.016-0.036-0.103-0.17-0.198-0.292s-0.17-0.237-0.17-0.257c0-0.016-0.063-0.103-0.138-0.19-0.079-0.087-0.186-0.233-0.241-0.328-0.055-0.091-0.119-0.166-0.138-0.166s-0.036-0.020-0.036-0.043c0-0.043-0.205-0.348-0.316-0.474-0.032-0.036-0.122-0.146-0.198-0.249s-0.17-0.221-0.205-0.265c-0.039-0.040-0.071-0.091-0.071-0.115 0-0.020-0.024-0.051-0.051-0.067s-0.111-0.111-0.186-0.209c-0.075-0.099-0.158-0.205-0.186-0.237-0.071-0.079-0.3-0.391-0.352-0.478-0.024-0.040-0.111-0.154-0.198-0.249-0.083-0.095-0.186-0.217-0.225-0.269-0.13-0.174-0.324-0.399-0.482-0.565-0.087-0.095-0.273-0.3-0.415-0.458-0.142-0.154-0.371-0.395-0.51-0.525-0.142-0.134-0.316-0.3-0.391-0.371-0.071-0.067-0.146-0.126-0.162-0.126-0.036 0-0.277 0.198-0.356 0.292-0.036 0.040-0.233 0.253-0.446 0.474-0.209 0.217-0.431 0.458-0.494 0.529-0.059 0.075-0.162 0.19-0.229 0.261-0.142 0.158-0.502 0.561-0.735 0.838-0.095 0.111-0.253 0.296-0.352 0.407-0.099 0.115-0.217 0.257-0.269 0.312-0.047 0.059-0.119 0.142-0.158 0.186-0.036 0.043-0.174 0.201-0.304 0.356-0.13 0.15-0.356 0.399-0.498 0.553-0.142 0.15-0.332 0.356-0.415 0.45-0.77 0.865-1.726 1.817-2.011 2.003-0.225 0.142-0.225 0.142-0.529 0.111-0.375-0.036-0.383-0.036-0.589 0-0.265 0.047-0.612 0.182-0.691 0.265-0.079 0.087-0.122 0.032 0.411 0.51 0.158 0.142 0.363 0.332 0.462 0.423 0.095 0.095 0.186 0.17 0.198 0.17 0.016 0 0.107 0.087 0.205 0.198 0.099 0.107 0.194 0.198 0.217 0.198s0.063 0.051 0.091 0.119c0.032 0.067 0.079 0.119 0.111 0.119s0.055 0.016 0.055 0.036c0 0.020 0.024 0.063 0.051 0.091 0.249 0.273 0.363 0.557 0.363 0.921 0 0.273-0.016 0.34-0.107 0.494-0.119 0.198-0.316 0.435-0.359 0.435-0.016 0-0.067 0.036-0.115 0.079s-0.158 0.103-0.245 0.134c-0.525 0.178-0.6 0.186-0.557 0.051 0.055-0.17 0.071-0.739 0.020-0.857-0.028-0.067-0.059-0.119-0.075-0.119-0.012 0-0.087-0.059-0.162-0.13-0.241-0.225-0.735-0.332-1.363-0.288-0.439 0.032-0.755 0.107-1.343 0.32-0.217 0.079-0.446 0.158-0.514 0.178-0.063 0.016-0.217 0.071-0.336 0.119-0.506 0.194-1.169 0.308-1.853 0.32-0.265 0.004-0.49 0-0.502-0.012-0.032-0.032 0.261-0.308 0.328-0.308 0.028 0 0.063-0.028 0.075-0.059 0.016-0.032 0.047-0.059 0.075-0.059 0.032 0 0.166-0.075 0.304-0.166l0.249-0.17-0.138-0.012c-0.075-0.008-0.486-0.008-0.913 0-0.723 0.012-0.766 0.008-0.672-0.051 0.158-0.095 0.64-0.245 1.071-0.336 0.142-0.028 0.336-0.091 0.652-0.205 0.288-0.107 0.395-0.166 0.296-0.166-0.032 0-0.379-0.036-0.766-0.079-0.391-0.043-0.79-0.079-0.889-0.079s-0.269-0.024-0.379-0.055l-0.198-0.051 0.158-0.040c0.146-0.036 0.569-0.134 1.075-0.249 0.115-0.024 0.249-0.055 0.296-0.063 0.253-0.043 0.743-0.158 0.762-0.178 0.012-0.012-0.126-0.047-0.304-0.071-0.482-0.075-0.664-0.107-1.316-0.221-0.324-0.055-0.687-0.119-0.806-0.138-0.115-0.020-0.221-0.043-0.229-0.055-0.028-0.024 1-0.253 1.485-0.332 0.166-0.028 0.17-0.032 0.079-0.071-0.174-0.079-0.525-0.17-0.766-0.194-0.525-0.055-0.632-0.071-0.676-0.103-0.024-0.020-0.138-0.087-0.257-0.15l-0.209-0.115 0.296-0.087c0.683-0.201 0.826-0.249 0.798-0.277-0.051-0.047-0.948-0.395-1.015-0.395-0.032 0-0.071-0.020-0.083-0.040s-0.063-0.040-0.111-0.040c-0.047-0.004-0.13-0.028-0.178-0.055l-0.095-0.051 0.126-0.051c0.071-0.028 0.15-0.051 0.182-0.051s0.055-0.032 0.055-0.067c0-0.036 0.020-0.083 0.047-0.111 0.036-0.036 0.036-0.059 0-0.095-0.028-0.028-0.047-0.071-0.047-0.103s-0.055-0.174-0.122-0.32c-0.067-0.142-0.142-0.304-0.166-0.36-0.067-0.174-0.158-0.371-0.205-0.474-0.028-0.055-0.071-0.17-0.099-0.257s-0.083-0.209-0.122-0.277c-0.043-0.063-0.075-0.154-0.075-0.198s-0.028-0.115-0.059-0.154c-0.032-0.043-0.059-0.103-0.059-0.13s-0.043-0.146-0.099-0.265c-0.055-0.119-0.099-0.229-0.099-0.245 0-0.036-0.261-0.699-0.36-0.913-0.040-0.095-0.075-0.213-0.075-0.265s-0.028-0.103-0.059-0.119c-0.032-0.012-0.059-0.047-0.059-0.079 0-0.063-0.245-0.703-0.316-0.822-0.020-0.040-0.040-0.111-0.040-0.166 0-0.051-0.024-0.115-0.055-0.138-0.032-0.028-0.067-0.107-0.079-0.182-0.024-0.122-0.091-0.296-0.245-0.64-0.032-0.067-0.055-0.142-0.055-0.17s-0.024-0.103-0.055-0.17c-0.154-0.352-0.3-0.743-0.3-0.806 0-0.043-0.016-0.091-0.036-0.115-0.020-0.020-0.083-0.162-0.134-0.312-0.055-0.154-0.154-0.419-0.225-0.593-0.067-0.174-0.138-0.371-0.154-0.435-0.016-0.067-0.059-0.174-0.091-0.237-0.032-0.067-0.119-0.288-0.186-0.494-0.071-0.205-0.142-0.411-0.158-0.454-0.091-0.213-0.261-0.676-0.407-1.098-0.028-0.087-0.107-0.217-0.174-0.296-0.067-0.083-0.126-0.162-0.126-0.178-0.004-0.032-0.063-0.103-0.332-0.391-0.083-0.087-0.15-0.17-0.15-0.186 0-0.012-0.126-0.158-0.28-0.32s-0.324-0.352-0.375-0.415c-0.051-0.067-0.166-0.201-0.253-0.296-0.091-0.099-0.249-0.273-0.348-0.391-0.103-0.115-0.233-0.265-0.292-0.328-0.063-0.063-0.111-0.119-0.111-0.126s-0.075-0.095-0.166-0.19c-0.095-0.099-0.269-0.288-0.387-0.431-0.119-0.138-0.3-0.34-0.403-0.446-0.107-0.107-0.19-0.198-0.19-0.205 0-0.012-0.277-0.316-0.581-0.64-0.095-0.095-0.17-0.182-0.17-0.186 0-0.040-0.992-1.047-1.031-1.047-0.020 0-0.036-0.028-0.036-0.059s-0.016-0.059-0.036-0.059c-0.024 0-0.091-0.047-0.15-0.103-0.205-0.19-0.217-0.19-0.363 0.119z"></path>
    <path d="M16.099 14.183c-0.016 0.063-0.040 0.119-0.055 0.119s-0.051 0.067-0.079 0.15c-0.047 0.134-0.043 0.17 0.032 0.308 0.043 0.083 0.099 0.201 0.126 0.261 0.024 0.063 0.059 0.111 0.079 0.111s0.036 0.020 0.036 0.047c0 0.024 0.119 0.162 0.269 0.304 0.292 0.288 0.506 0.652 0.541 0.921 0.012 0.095 0.040 0.269 0.063 0.387s0.043 0.261 0.047 0.316c0.020 0.229 0.233 0.545 0.676 0.98 0.439 0.431 0.79 0.802 1.039 1.086 0.067 0.083 0.142 0.146 0.166 0.146s0.043 0.024 0.043 0.047c0.004 0.075 0.435 0.328 0.435 0.257 0-0.008-0.063-0.138-0.138-0.292s-0.138-0.3-0.138-0.324c0-0.024-0.016-0.043-0.040-0.043-0.020 0-0.040-0.020-0.040-0.043s-0.051-0.119-0.115-0.213c-0.063-0.095-0.126-0.213-0.142-0.265-0.016-0.047-0.059-0.134-0.095-0.19-0.225-0.336-0.395-0.849-0.324-0.98 0.036-0.063 0.016-0.111-0.103-0.269-0.186-0.245-0.32-0.395-0.668-0.766-0.154-0.162-0.356-0.383-0.454-0.49-0.095-0.111-0.213-0.241-0.261-0.288-0.051-0.051-0.091-0.103-0.091-0.115 0-0.008-0.043-0.087-0.099-0.174s-0.099-0.217-0.099-0.288c0-0.071-0.036-0.205-0.079-0.296-0.043-0.087-0.079-0.182-0.079-0.205 0-0.020-0.020-0.040-0.040-0.040-0.024 0-0.095-0.063-0.162-0.138-0.15-0.17-0.217-0.174-0.253-0.020z"></path>
    <path d="M13.258 15.775c-0.312 0.265-0.798 0.77-0.921 0.948-0.059 0.091-0.213 0.312-0.336 0.49-0.126 0.178-0.229 0.34-0.229 0.36s-0.024 0.059-0.055 0.083c-0.032 0.028-0.134 0.174-0.229 0.332-0.091 0.158-0.186 0.312-0.209 0.348-0.020 0.036-0.091 0.158-0.154 0.277s-0.146 0.261-0.186 0.316c-0.040 0.055-0.083 0.146-0.095 0.205-0.016 0.059-0.040 0.107-0.055 0.107s-0.059 0.075-0.103 0.166c-0.040 0.095-0.083 0.178-0.099 0.19s-0.071 0.107-0.126 0.217c-0.055 0.107-0.15 0.284-0.209 0.395-0.059 0.107-0.205 0.383-0.328 0.612-0.119 0.229-0.273 0.518-0.34 0.644-0.178 0.336-0.541 0.802-0.676 0.873-0.063 0.032-0.17 0.071-0.237 0.087-0.154 0.036-0.225 0.111-0.352 0.36-0.115 0.233-0.119 0.249-0.059 0.249 0.047 0 0.719-0.312 0.747-0.348 0.024-0.032 0.122-0.095 0.316-0.201 0.387-0.213 1.383-1.241 1.383-1.43 0-0.020 0.016-0.036 0.040-0.036 0.020 0 0.063-0.051 0.099-0.115 0.032-0.063 0.079-0.138 0.107-0.17 0.028-0.028 0.095-0.13 0.146-0.229 0.055-0.099 0.107-0.186 0.119-0.198 0.040-0.036 0.28-0.537 0.28-0.585 0-0.028 0.020-0.047 0.040-0.047 0.024 0 0.040-0.024 0.040-0.055 0-0.028 0.040-0.103 0.091-0.166 0.047-0.063 0.083-0.119 0.075-0.122-0.004-0.008 0.213-0.458 0.486-1.003s0.494-1.015 0.494-1.047c0-0.032 0.016-0.055 0.036-0.055s0.075-0.103 0.126-0.225c0.051-0.126 0.142-0.324 0.201-0.442s0.111-0.237 0.111-0.265c0-0.028 0.012-0.055 0.032-0.063 0.040-0.016 0.284-0.624 0.253-0.624-0.016 0-0.115 0.075-0.221 0.17z"></path>
    <path d="M30.108 19.761c0.067 0.134 0.442 0.482 0.644 0.601 0.142 0.083 0.221 0.103 0.419 0.099 0.237-0.008 0.241-0.008 0.229-0.111-0.008-0.079-0.043-0.111-0.138-0.142-0.071-0.020-0.13-0.051-0.13-0.067s-0.028-0.032-0.059-0.032c-0.051 0-0.446-0.174-0.814-0.363-0.186-0.091-0.205-0.091-0.15 0.016z"></path>
    <path d="M33.134 20.776c-0.067 0.024-0.063 0.032 0.032 0.075 0.122 0.055 0.158 0.040 0.126-0.051-0.028-0.063-0.051-0.067-0.158-0.024z"></path>
    <path d="M39.388 21.112c0 0.028 0.028 0.075 0.059 0.103s0.059 0.063 0.059 0.083c0 0.020 0.122 0.217 0.277 0.439 0.324 0.478 0.288 0.427 0.525 0.711 0.103 0.122 0.186 0.233 0.186 0.245 0 0.016 0.095 0.126 0.213 0.253 0.115 0.122 0.257 0.273 0.308 0.332 0.055 0.063 0.119 0.111 0.146 0.111 0.024 0 0.043 0.016 0.043 0.032 0 0.020 0.032 0.071 0.071 0.115 0.095 0.107 0.604 0.486 0.652 0.486 0.024 0 0.071 0.024 0.103 0.055 0.067 0.063 0.64 0.3 0.719 0.3 0.087 0-0.146-0.194-0.328-0.273-0.19-0.079-0.45-0.324-0.604-0.557-0.047-0.075-0.126-0.182-0.174-0.233-0.043-0.051-0.083-0.107-0.083-0.122s-0.039-0.071-0.087-0.126c-0.158-0.174-0.269-0.308-0.269-0.324 0-0.020-0.336-0.387-0.679-0.739-0.126-0.13-0.229-0.253-0.229-0.273 0-0.024-0.016-0.040-0.039-0.040-0.020 0-0.091-0.047-0.154-0.111-0.375-0.348-0.715-0.573-0.715-0.466z"></path>
</svg>